<svg width="77" height="46" viewBox="0 0 77 46" fill="none" xmlns="http://www.w3.org/2000/svg">
<path fill-rule="evenodd" clip-rule="evenodd" d="M26.3508 0.209079C25.9383 0.412318 25.7628 0.44482 24.8315 0.490111C22.2442 0.616046 20.1319 1.29989 19.0081 2.37539C18.5727 2.79213 18.4725 2.94267 18.3552 3.3564C18.1822 3.9666 17.9881 4.22768 17.0162 5.15712L16.2404 5.89888L16.2822 6.26585C16.3511 6.8724 17.2491 8.14902 17.8799 8.53708C18.2028 8.73568 19.2651 9.09923 19.5227 9.09923C19.6967 9.09923 19.7136 9.06363 19.7136 8.69788C19.7136 8.35853 19.748 8.26966 19.9359 8.12303C20.5609 7.63542 21.4662 8.73861 21.0983 9.53952C20.9904 9.77444 20.5329 10.0165 20.2659 9.97972C20.096 9.95634 20.0839 9.98428 20.0943 10.3796C20.1179 11.2859 20.8331 12.0798 21.7064 12.1692C22.3675 12.2369 22.8592 11.9803 23.6755 11.1419C24.0253 10.7827 24.4281 10.4289 24.5707 10.3557C25.142 10.0627 26.1234 10.4931 27.0207 11.43C27.5908 12.0254 28.04 12.7454 27.9922 12.9873C27.963 13.1344 27.361 13.3202 25.9549 13.6158C24.0279 14.0209 22.4856 14.1871 19.5083 14.3108C17.0966 14.411 16.5716 14.5266 15.9344 15.0976C15.2256 15.7328 15.0501 16.5582 15.472 17.2723C16.0897 18.3179 17.8328 18.6429 20.1242 18.1398C20.5533 18.0456 21.1446 17.9164 21.4382 17.8527C22.2955 17.6667 23.3957 17.6178 24.139 17.7325C24.5054 17.789 24.8052 17.8632 24.8052 17.8974C24.8052 17.9316 24.5373 18.1167 24.2098 18.3086C23.4053 18.7801 22.6721 19.5319 22.3341 20.2318C22.1183 20.6786 22.0583 20.9173 22.0301 21.4402C21.9886 22.2122 22.0895 22.6397 22.42 23.0921C22.7412 23.5321 23.2839 23.8366 23.9474 23.9493C24.995 24.1273 25.9891 23.6895 26.9355 22.6332C27.9776 21.4702 28.5343 21.38 31.7855 21.8473C34.1357 22.1851 35.8811 22.2915 36.5316 22.1367C36.7612 22.082 37.1196 21.93 37.3281 21.7989L37.7072 21.5604L38.2571 21.796C39.4149 22.2921 40.5912 22.5536 42.7078 22.7853C44.3472 22.9648 45.067 23.0724 45.467 23.1978C45.7086 23.2735 45.7285 23.3128 45.8591 23.9724C46.3698 26.5501 47.9551 28.5995 50.9609 30.567C51.6893 31.0438 52.3446 31.7216 52.463 32.1208C52.6651 32.8021 52.5303 33.6776 52.0736 34.651C51.809 35.2149 51.4494 35.7592 50.6299 36.8359C49.9786 37.6917 49.7564 38.1445 49.757 38.6144C49.7578 39.0716 49.8705 39.334 50.1762 39.5891C50.8283 40.1334 51.8496 39.9189 52.7307 39.0525C53.8168 37.9845 55.2379 35.1911 55.889 32.8444L56.0697 32.1928L56.5848 32.7144C56.8797 33.0132 57.1864 33.4237 57.3024 33.6751C57.4784 34.0564 57.4974 34.1806 57.4465 34.6197C57.3238 35.6806 56.8837 36.6226 55.888 37.9552C54.6623 39.5956 54.3531 40.6346 54.8428 41.4663C55.1702 42.0223 56.0928 42.3545 56.8112 42.175C58.3973 41.7789 59.2267 40.5489 60.4779 36.7375C61.335 34.1266 61.5635 32.7891 61.3163 31.8317C61.1524 31.1971 60.9873 30.9169 60.2815 30.0748C59.0644 28.6229 58.6584 27.9449 58.1513 26.5175C57.8776 25.7473 57.8391 25.5521 58.0295 25.9003C58.097 26.0236 58.5276 26.6468 58.9864 27.2851C59.4451 27.9234 60.1694 28.9772 60.596 29.6268C61.0224 30.2764 61.5406 31.0646 61.7475 31.3782C63.8285 34.5327 65.6666 36.1992 67.9939 37.0417C71.8262 38.429 75.6587 36.6538 76.7959 32.9646C77.0667 32.0859 77.0683 30.8825 76.7993 30.3374C76.5359 29.8033 76.1484 29.5253 75.6122 29.4855C75.1021 29.4476 74.6879 29.6395 74.464 30.0176C74.3764 30.1656 74.2851 30.5626 74.2406 30.9891C74.092 32.4142 73.6987 33.0306 72.6016 33.5583C71.2746 34.1964 69.2594 33.8133 67.5396 32.596C66.5345 31.8845 65.2437 30.3106 64.3696 28.7308C64.2085 28.4396 63.699 27.3765 63.2372 26.3685C61.7641 23.1522 60.8019 21.3764 59.4551 19.3879C58.1796 17.5048 56.6754 15.6965 55.1086 14.1626C51.8828 11.0049 49.0289 9.47712 43.8985 8.16205C41.2761 7.48985 40.8737 7.29069 39.3358 5.90353C37.5926 4.33113 36.6219 3.87366 34.2844 3.52257C33.1819 3.35697 32.7341 3.19103 31.6661 2.55191C30.653 1.94578 29.7928 1.5661 29.1446 1.4391C28.9033 1.39186 28.6254 1.33647 28.527 1.3161C28.3926 1.28824 28.3166 1.17159 28.2216 0.847632C28.0485 0.256894 27.7945 0.036793 27.249 0.00461683C26.9063 -0.0155849 26.7209 0.0266115 26.3508 0.209079ZM27.3115 1.20524C27.4081 1.64145 27.2771 2.11847 26.8557 2.86398C26.6312 3.26117 26.4476 3.61307 26.4476 3.64598C26.4476 3.74406 26.9918 3.59214 27.2858 3.41187C27.4361 3.31974 27.648 3.15047 27.7567 3.03561C27.8655 2.92084 28.0319 2.82692 28.1265 2.82692C28.4788 2.82692 29.4953 3.16138 30.7188 3.67995C32.2813 4.34221 32.7649 4.49152 34.0286 4.7025C36.3673 5.09285 36.9954 5.37739 38.5196 6.73693C40.2251 8.25833 40.7607 8.55044 42.9479 9.15177C46.9935 10.2642 47.954 10.5881 49.4359 11.34C51.014 12.1407 52.4152 13.1385 53.7706 14.4268C55.4125 15.9875 56.9123 17.769 58.3034 19.811C59.9351 22.2065 60.0181 22.3586 62.6797 27.8347C63.3663 29.2472 64.0081 30.3136 64.6286 31.0731C64.8576 31.3533 65.0449 31.63 65.0449 31.6878C65.0449 31.7457 64.812 32.0454 64.5274 32.3539C64.1694 32.7418 63.9764 32.8942 63.9015 32.8483C63.7613 32.7623 62.5019 30.8521 61.4555 29.1381C61.0041 28.3988 60.2334 27.1708 59.7427 26.4092C58.0326 23.7546 57.219 21.8876 56.7781 19.6066C56.5509 18.4305 56.4426 18.6696 56.3671 20.5144C56.2737 22.7947 56.6545 25.0009 57.5462 27.346C58.0381 28.6396 58.644 29.6402 59.6857 30.8785C60.0198 31.2757 60.3312 31.6972 60.3776 31.8153C60.5054 32.1397 60.4621 33.0633 60.2805 33.8886C60.0555 34.9109 58.7911 38.6376 58.3982 39.4363C58.013 40.2194 57.4188 40.9161 56.9638 41.1181C56.58 41.2886 56.5047 41.2637 56.503 40.9651C56.5023 40.8446 56.4647 40.6909 56.4194 40.6237C56.3496 40.5202 56.3072 40.5349 56.1419 40.7201C56.0346 40.8402 55.9294 40.9869 55.9083 41.0459C55.8217 41.287 55.7241 40.9832 55.7244 40.4742C55.7249 39.8355 55.8092 39.6694 56.8267 38.3022C57.5828 37.286 58.1663 36.1874 58.3613 35.4129C58.5681 34.5912 58.4914 33.6896 58.1577 33.0173C57.6796 32.0538 56.8459 31.2953 53.7121 28.9724C50.7501 26.7768 49.5929 25.4109 48.7961 23.1702C48.4412 22.172 48.2392 21.0876 48.1217 19.5492C48.0661 18.8227 47.9936 18.2449 47.9605 18.2652C47.8846 18.3118 47.7381 19.1431 47.6704 19.9129C47.6418 20.2377 47.5977 20.5034 47.5723 20.5034C47.5471 20.5034 47.0796 20.3597 46.5337 20.1839C45.9876 20.0082 44.7524 19.6964 43.7886 19.4911C40.944 18.8852 40.0257 18.5057 39.0533 17.5343C38.2154 16.6971 37.7243 15.6483 37.5705 14.3676C37.5393 14.1066 37.4839 13.9233 37.4475 13.9603C37.322 14.0879 37.1471 15.1702 37.1338 15.901C37.1265 16.3042 37.1949 17.129 37.2858 17.7338C37.3768 18.3387 37.4514 18.9656 37.4516 19.127C37.4521 19.5336 37.1617 19.9239 36.6734 20.1728L36.2646 20.3813H32.4442C28.6536 20.3813 28.6197 20.3827 28.0901 20.5706C27.322 20.8432 26.9115 21.1023 26.1954 21.7665C25.1937 22.6957 24.5202 22.9351 24.247 22.4589C24.0681 22.1471 23.9407 22.1492 23.8294 22.4658C23.7288 22.752 23.6124 22.7451 23.3821 22.439C22.9184 21.823 23.2277 20.7613 24.1093 19.9434C24.6876 19.4068 25.8932 18.757 27.2278 18.2625C28.4894 17.795 30.7534 17.0151 31.6213 16.7488C32.6974 16.4188 32.6971 16.419 32.329 16.3368C31.7473 16.207 30.987 15.7938 30.8125 15.5127C30.6303 15.2191 30.3106 14.1356 30.103 13.1073C29.6598 10.9128 28.7508 9.56583 27.2218 8.83808C26.5578 8.5221 26.4352 8.49074 25.8741 8.49367C25.1006 8.49766 24.6944 8.69039 24.1116 9.32992C22.9473 10.6075 22.4678 11.0384 22.1026 11.1348C21.6669 11.2498 21.2653 11.1884 21.0726 10.9771C20.9367 10.8281 20.9413 10.8162 21.1834 10.692C21.9632 10.292 22.3782 9.65217 22.3755 8.85371C22.3733 8.16449 22.1375 7.72918 21.5712 7.36872C21.2077 7.13738 21.0963 7.1083 20.5813 7.11042C19.9177 7.11319 19.618 7.23635 19.0741 7.72983C18.6996 8.06959 18.5617 8.08108 18.1765 7.80445C17.9659 7.65318 17.7265 7.20434 17.7473 6.99963C17.7747 6.73001 17.7412 6.66362 17.5244 6.55813C17.4044 6.49964 17.2658 6.38397 17.2165 6.30105C17.1402 6.17267 17.1818 6.10603 17.4963 5.85302C17.6996 5.68954 18.1301 5.29919 18.453 4.98557C18.9897 4.46423 19.0556 4.36331 19.2212 3.80751C19.4331 3.09703 19.6782 2.83107 20.5311 2.38647C21.5712 1.84436 23.3816 1.36066 24.3707 1.36066H24.7359L24.4406 1.70279C24.2783 1.89087 24.159 2.08336 24.1755 2.13044C24.2291 2.28293 24.9137 2.215 25.3111 2.01779C25.5216 1.91327 25.8912 1.67941 26.1324 1.49792C26.9595 0.875654 27.2241 0.809998 27.3115 1.20524ZM20.3295 3.63702C20.0684 3.74308 19.9037 3.98249 19.8499 4.3339C19.8225 4.51311 19.776 4.77891 19.7466 4.92448C19.6714 5.29633 19.8471 5.27157 20.2513 4.85336C20.6514 4.43947 21.0776 4.24487 21.7461 4.17098C22.0285 4.13978 22.2594 4.0795 22.2594 4.03707C22.2594 3.99463 22.0653 3.87024 21.8283 3.76076C21.385 3.55605 20.6737 3.49732 20.3295 3.63702ZM29.831 4.71676C29.6735 4.87307 29.7167 5.24347 29.92 5.47782C30.1424 5.73426 30.7856 5.85343 30.937 5.66624C31.1673 5.38146 31.1471 5.19133 30.8555 4.90207C30.6273 4.6757 30.506 4.61901 30.2499 4.61901C30.0737 4.61901 29.8852 4.66299 29.831 4.71676ZM33.3459 5.65589C33.0326 5.77417 33.0167 6.17177 33.3159 6.40515C33.5735 6.60619 33.8602 6.6224 34.0381 6.44604C34.4074 6.07964 33.8645 5.46007 33.3459 5.65589ZM28.0913 6.0829C27.8749 6.48408 28.089 7.32669 28.4298 7.41515C28.779 7.50565 28.8394 6.92274 28.5448 6.30675C28.378 5.95802 28.2048 5.87257 28.0913 6.0829ZM35.6148 6.88828C35.2886 7.2458 35.6784 7.97795 36.2518 8.08458C36.8765 8.2009 37.1373 7.96451 36.9628 7.44C36.8316 7.04566 36.5355 6.80609 36.1224 6.7599C35.8368 6.72797 35.7383 6.7529 35.6148 6.88828ZM31.199 7.84949C30.9712 8.10625 30.9392 8.35877 31.0859 8.73975C31.2522 9.17173 31.554 9.42547 31.8993 9.42384C32.2221 9.42221 32.3293 9.35403 32.4327 9.08416C32.62 8.59541 32.1552 7.82905 31.6203 7.74482C31.4032 7.7106 31.2991 7.73651 31.199 7.84949ZM38.2732 9.26215C38.0377 9.49577 38.0698 9.72834 38.3799 10.036C38.746 10.3991 39.2797 10.5595 39.5759 10.3953C39.8207 10.2596 39.9047 9.87219 39.751 9.58741C39.506 9.13312 38.6035 8.93452 38.2732 9.26215ZM34.5413 9.76906C34.3084 10.0988 34.3959 10.473 34.8084 10.9117C34.9666 11.08 35.0965 11.1357 35.3306 11.1357C35.5964 11.1357 35.6499 11.1051 35.695 10.9272C35.724 10.8124 35.7269 10.565 35.7015 10.3773C35.6147 9.73453 34.8491 9.33318 34.5413 9.76906ZM42.8437 10.3072C42.769 10.3891 42.7078 10.5142 42.7078 10.585C42.7078 10.7481 43.1657 11.1357 43.3583 11.1357C43.5516 11.1357 43.7754 10.8809 43.7754 10.6609C43.7754 10.2385 43.1299 9.99349 42.8437 10.3072ZM46.5236 11.3762C45.9128 11.6217 46.0755 12.3912 46.8175 12.7667C47.2618 12.9916 47.675 12.9771 47.9262 12.7278C48.1768 12.4793 48.1802 12.2958 47.9406 11.9432C47.6068 11.4518 46.9696 11.1968 46.5236 11.3762ZM31.6151 11.6718C31.4515 11.8445 31.416 11.9664 31.416 12.3556C31.416 12.9112 31.5911 13.1722 31.9638 13.1722C32.3176 13.1722 32.5434 12.7713 32.5021 12.2162C32.4489 11.5029 32.0228 11.2413 31.6151 11.6718ZM39.6393 12.1191C39.1942 12.4664 39.4329 13.1676 40.1064 13.491C40.9074 13.8756 41.6246 13.5856 41.5337 12.9136C41.456 12.3389 40.9418 11.9503 40.2593 11.9503C39.9753 11.9503 39.7915 12.0003 39.6393 12.1191ZM43.9436 13.6832C43.7721 13.7437 43.5976 13.89 43.5014 14.054C43.3638 14.2884 43.3552 14.3672 43.4379 14.6409C43.6377 15.3024 44.3072 15.7788 45.0368 15.7788C45.3446 15.7788 45.4691 15.7353 45.6367 15.5691C45.8208 15.3865 45.8431 15.3079 45.8096 14.9616C45.7238 14.0762 44.7404 13.4025 43.9436 13.6832ZM33.8022 13.842C33.495 14.2769 33.8403 15.3193 34.3749 15.571C34.7143 15.7307 34.9231 15.6514 35.1107 15.2917C35.2725 14.9812 35.2649 14.7529 35.079 14.3469C34.787 13.7094 34.0904 13.4338 33.8022 13.842ZM51.4031 14.0777C51.1259 14.3527 51.2246 14.8889 51.6293 15.3071C52.5586 16.2674 53.6245 15.9042 53.0631 14.8184C52.8656 14.4363 52.6021 14.1919 52.2149 14.0314C51.805 13.8615 51.6099 13.8726 51.4031 14.0777ZM48.4018 14.7666C48.2274 14.9395 48.1988 15.0271 48.2379 15.2665C48.3932 16.2153 49.655 16.8771 50.1217 16.2546C50.3472 15.9537 50.2565 15.5365 49.8745 15.1171C49.3294 14.5186 48.7828 14.3886 48.4018 14.7666ZM27.6497 14.8764C27.9376 15.0505 28.2996 15.7252 28.3832 16.2436C28.4316 16.5445 28.4186 16.5736 28.1951 16.6654C27.8037 16.8263 26.8908 16.7903 25.6982 16.5671C23.498 16.1553 23.1487 16.1744 20.4725 16.8529C19.1329 17.1925 18.7158 17.2657 18.0712 17.2748C17.3901 17.2844 17.2389 17.26 16.8804 17.0822C16.5351 16.911 16.4576 16.8297 16.3933 16.5715C16.2955 16.1785 16.4827 15.8992 17.0249 15.6294C17.4877 15.399 18.1793 15.3276 21.1097 15.208C23.0202 15.1299 24.6794 14.9869 25.7496 14.8078C26.5371 14.676 27.368 14.7059 27.6497 14.8764ZM40.9821 15.6414C40.6795 15.7902 40.6577 16.2469 40.9405 16.5104C41.1778 16.7315 41.6238 16.7759 41.8378 16.5998C42.1462 16.3459 41.8577 15.6892 41.3927 15.5865C41.2791 15.5615 41.0943 15.5862 40.9821 15.6414ZM53.6513 17.2655C53.3762 17.612 53.4901 18.3157 53.8846 18.707C54.4946 19.312 55.1696 18.7532 54.8231 17.9303C54.6237 17.4571 54.3066 17.1636 53.9942 17.1636C53.8502 17.1636 53.6959 17.2095 53.6513 17.2655ZM35.4172 17.6163C35.0493 17.8718 35.2951 18.5484 35.7557 18.5484C36.1932 18.5484 36.3991 17.8674 36.0376 17.6163C35.9372 17.5466 35.7976 17.4895 35.7274 17.4895C35.6572 17.4895 35.5176 17.5466 35.4172 17.6163ZM44.6149 17.6978C44.2179 17.9735 44.5324 18.6299 45.0613 18.6299C45.5177 18.6299 45.7336 18.1476 45.4542 17.752C45.3008 17.5348 44.8878 17.5081 44.6149 17.6978ZM32.1283 18.1667C31.7625 18.5531 32.0132 19.1186 32.5502 19.1186C32.9182 19.1186 33.1816 18.8649 33.1816 18.5103C33.1816 18.1508 32.9979 17.9782 32.6152 17.9782C32.3992 17.9782 32.2535 18.0346 32.1283 18.1667ZM50.2273 18.5764C50.0656 18.7368 50.017 18.8668 50.0184 19.1353C50.0236 20.1426 51.0115 20.9722 51.4888 20.3703C51.9374 19.8047 51.4335 18.5648 50.6956 18.4184C50.4882 18.3772 50.3972 18.4079 50.2273 18.5764ZM28.9776 18.691C28.7458 18.9587 28.7387 19.1178 28.9495 19.3269C29.3238 19.6981 29.8146 19.4971 29.8146 18.9725C29.8146 18.5719 29.2462 18.3807 28.9776 18.691ZM54.0786 21.3734C53.8534 21.5969 53.9517 22.3502 54.2379 22.5944C54.5173 22.8329 54.734 22.8358 54.8982 22.6032C55.1307 22.274 55.0453 21.8253 54.673 21.4199C54.4728 21.2019 54.2677 21.1858 54.0786 21.3734ZM58.9843 22.5562C58.8119 22.7273 58.8673 23.1807 59.0874 23.3989C59.1983 23.5089 59.3387 23.5989 59.3995 23.5989C59.7082 23.5989 59.8041 23.1253 59.5817 22.6988C59.4485 22.4432 59.1662 22.3759 58.9843 22.5562ZM50.8836 22.8839C50.5996 23.286 50.837 24.1478 51.3306 24.5066C51.9067 24.9256 52.3982 24.7121 52.3982 24.0428C52.3982 23.5914 52.2535 23.2971 51.8657 22.9593C51.4997 22.6406 51.0782 22.6082 50.8836 22.8839ZM54.8558 24.7872C54.5928 25.1015 54.8281 25.7768 55.2915 26.0378C55.4764 26.1419 55.524 26.1394 55.7147 26.0155C55.8684 25.9156 55.9294 25.8055 55.9294 25.6281C55.9294 24.9562 55.1954 24.3813 54.8558 24.7872ZM3.13574 25.1092C1.88839 25.3777 0.81194 26.1647 0.310421 27.1751L0.0454136 27.7089L0.0227478 34.8639L0 42.019L4.29309 41.9868C9.11964 41.9505 9.20209 41.942 10.3982 41.3542C11.6079 40.7598 12.5022 39.7583 12.9467 38.5006C13.2418 37.6655 13.3157 36.1138 13.1021 35.2343C12.6933 33.5508 11.8158 32.4402 10.3107 31.7012C9.12186 31.1176 8.86342 31.0716 6.55358 31.0319L4.52106 30.997V30.358C4.52106 30.0065 4.55777 29.6231 4.60269 29.506C4.76693 29.0775 4.95195 29.0566 8.58347 29.0566H11.912V27.0201V24.9837L7.78541 24.9901C4.60096 24.9952 3.53937 25.0224 3.13574 25.1092ZM12.8345 27.122L12.8564 29.2602L28.5007 29.274C37.105 29.2816 44.3574 29.2679 44.6171 29.2435L45.0893 29.1993V27.0915V24.9837H28.9509H12.8127L12.8345 27.122ZM60.791 25.8145C60.5732 26.0307 60.7922 26.6128 61.0913 26.6128C61.4397 26.6128 61.5488 26.1589 61.2673 25.8797C61.0798 25.6937 60.933 25.6737 60.791 25.8145ZM53.1414 26.5671C52.9673 26.7753 53.1051 27.2476 53.3904 27.4196C53.9305 27.7454 54.3004 27.3524 53.9918 26.7806C53.8631 26.5423 53.7829 26.4863 53.5408 26.4661C53.3511 26.4504 53.209 26.4863 53.1414 26.5671ZM62.8003 29.8441C62.6085 30.0343 62.9556 30.8487 63.2286 30.8487C63.5813 30.8487 63.6632 30.477 63.4034 30.0545C63.2489 29.8031 62.9475 29.698 62.8003 29.8441ZM30.6357 30.8012C28.7436 31.1952 27.1572 32.5409 26.4796 34.327C26.0796 35.3809 26.038 36.0286 26.0375 41.2143L26.037 46H28.0901H30.1431V43.5536V41.1072L30.5769 41.432C31.9471 42.4583 33.6173 42.5273 35.0363 41.6163C36.7115 40.5409 37.6608 38.6538 37.6461 36.4286C37.6384 35.2633 37.463 34.4901 36.9912 33.5423C36.3232 32.2003 35.1888 31.2809 33.7154 30.8874C33.0392 30.7068 31.3202 30.6587 30.6357 30.8012ZM17.6606 30.9268C16.9272 31.0825 16.2669 31.3164 15.7512 31.6034L15.4433 31.7747V33.3074C15.4433 34.1505 15.4572 34.8402 15.4741 34.8402C15.491 34.8402 15.7959 34.7083 16.1516 34.5472C17.107 34.1142 17.8701 33.9438 18.844 33.9459C20.2107 33.9488 20.5386 34.1913 20.6695 35.2958C20.7216 35.7349 20.7153 35.7593 20.5683 35.6962C19.7323 35.3373 18.132 35.224 17.0655 35.4482C15.9927 35.6737 15.0057 36.2904 14.4611 37.0755C13.7437 38.1098 13.6751 39.7347 14.3056 40.7615C14.5774 41.2041 15.3099 41.8033 15.8233 42.0029C16.4284 42.2382 17.7034 42.3232 18.3869 42.1739C19.093 42.0196 19.9873 41.5771 20.4376 41.1593L20.8418 40.7843L20.8969 41.196C20.9272 41.4223 20.9865 41.6978 21.0288 41.8081L21.1056 42.0085H22.8733H24.6409V38.5431C24.6409 34.638 24.6018 34.2591 24.0904 33.211C23.5398 32.0829 22.4465 31.2718 21.0183 30.9322C20.1228 30.7192 18.65 30.7169 17.6606 30.9268ZM43.0773 30.9019C40.6238 31.42 38.9032 33.1996 38.4713 35.6655C38.0353 38.1558 39.1365 40.4984 41.2443 41.5644C42.1417 42.0183 42.847 42.1794 44.1449 42.2272C45.3477 42.2713 46.4273 42.1254 47.1629 41.8192L47.4708 41.691V39.8473C47.4708 38.8332 47.4432 38.0157 47.4092 38.0307C47.3753 38.0456 47.0539 38.2044 46.695 38.3836C46.0459 38.7076 46.0368 38.7094 45.0936 38.7094C44.2241 38.7094 44.1107 38.6914 43.7343 38.4928C42.8408 38.0213 42.4934 37.4278 42.5612 36.4886C42.6666 35.027 43.649 34.1764 45.2535 34.1575C46.0349 34.1483 46.6902 34.3098 47.1626 34.6278C47.3247 34.737 47.4697 34.8142 47.4847 34.7994C47.4997 34.7847 47.5013 33.9693 47.4884 32.9875L47.4648 31.2024L47.0367 31.0715C45.9672 30.7443 44.1851 30.668 43.0773 30.9019ZM66.6117 33.2823C67.0085 33.5801 67.9349 34.153 68.1174 34.2133C68.2332 34.2515 67.6338 35.0436 67.2955 35.2996L67.0182 35.5094L66.668 35.3293C66.2515 35.1151 65.3678 34.5003 65.2169 34.3199C65.1261 34.2114 65.1465 34.1618 65.3526 33.9897C65.486 33.8784 65.7208 33.6035 65.8744 33.379C66.0279 33.1545 66.162 32.9699 66.1725 32.9687C66.1828 32.9676 66.3805 33.1087 66.6117 33.2823ZM32.5067 34.315C33.3763 34.6753 33.8271 35.6781 33.6611 36.8828C33.5645 37.5835 33.2344 38.1585 32.7412 38.4854C32.3827 38.7231 32.2819 38.75 31.7557 38.7484C31.345 38.7472 31.0595 38.6971 30.8016 38.581C30.1316 38.2796 30.1431 38.3085 30.1431 36.9192C30.1431 36.0203 30.1776 35.5835 30.2697 35.3155C30.404 34.9244 30.764 34.5247 31.1696 34.3161C31.4857 34.1536 32.1161 34.1531 32.5067 34.315ZM7.56828 34.9603C8.31009 35.2183 8.68653 35.8279 8.60753 36.6434C8.5489 37.2487 8.21836 37.7198 7.66231 37.9907C7.21277 38.2096 7.12564 38.222 5.85554 38.2481L4.52106 38.2754V36.505V34.7346L5.85554 34.7817C6.76545 34.8138 7.31041 34.8706 7.56828 34.9603ZM71.4504 34.9615L72.477 34.9624L72.6205 35.2475C72.7948 35.5934 72.8077 36.0879 72.6458 36.2211C72.2423 36.5534 70.5233 36.7175 69.4887 36.5224C69.1099 36.451 68.7846 36.3774 68.7658 36.3588C68.7471 36.3401 68.8625 36.1833 69.0224 36.0102C69.1822 35.8371 69.3967 35.5013 69.499 35.2639L69.6848 34.8323L70.0544 34.8965C70.2576 34.9317 70.8859 34.961 71.4504 34.9615ZM20.5729 37.6888C20.6949 37.7891 20.7122 37.9036 20.6803 38.3966C20.6327 39.1326 20.4909 39.3562 19.9022 39.6236C19.5256 39.7946 19.3658 39.8227 18.971 39.7871C18.1293 39.7114 17.7569 39.3372 17.8486 38.6592C17.9129 38.1837 18.3044 37.8154 18.974 37.6005C19.3104 37.4925 20.4081 37.5531 20.5729 37.6888Z" fill="white"/>
</svg>
