<svg width="104" height="63" viewBox="0 0 104 63" fill="none" xmlns="http://www.w3.org/2000/svg">
<path fill-rule="evenodd" clip-rule="evenodd" d="M35.5907 0.286347C35.0336 0.564697 34.7965 0.60921 33.5387 0.671239C30.0441 0.843715 27.1911 1.78029 25.6733 3.25325C25.0852 3.82401 24.9499 4.03018 24.7914 4.5968C24.5578 5.43252 24.2956 5.79008 22.9829 7.06301L21.9351 8.07891L21.9915 8.5815C22.0847 9.41219 23.2975 11.1606 24.1495 11.6921C24.5856 11.9641 26.0204 12.462 26.3683 12.462C26.6033 12.462 26.6262 12.4132 26.6262 11.9123C26.6262 11.4475 26.6727 11.3258 26.9264 11.125C27.7705 10.4572 28.9933 11.9681 28.4964 13.065C28.3506 13.3867 27.7327 13.7182 27.3721 13.6679C27.1426 13.6359 27.1263 13.6741 27.1403 14.2155C27.1722 15.4568 28.1382 16.5441 29.3177 16.6666C30.2106 16.7593 30.8748 16.4079 31.9773 15.2595C32.4497 14.7675 32.9938 14.283 33.1864 14.1828C33.958 13.7816 35.2836 14.3709 36.4954 15.6541C37.2654 16.4696 37.8722 17.4557 37.8076 17.7869C37.7682 17.9885 36.9551 18.2428 35.056 18.6477C32.4533 19.2025 30.3702 19.4302 26.3489 19.5996C23.0915 19.7368 22.3825 19.8951 21.5217 20.6771C20.5644 21.5471 20.3274 22.6775 20.8973 23.6555C21.7316 25.0876 24.0858 25.5327 27.1808 24.8436C27.7603 24.7146 28.5589 24.5377 28.9555 24.4504C30.1133 24.1957 31.5994 24.1287 32.6033 24.2858C33.0981 24.3632 33.5031 24.4648 33.5031 24.5117C33.5031 24.5585 33.1413 24.812 32.6989 25.0749C31.6124 25.7206 30.622 26.7502 30.1655 27.7087C29.8741 28.3207 29.793 28.6475 29.755 29.3638C29.6989 30.4211 29.8352 31.0065 30.2815 31.6262C30.7154 32.2287 31.4483 32.6457 32.3446 32.8001C33.7595 33.0439 35.1021 32.4442 36.3804 30.9976C37.7879 29.4048 38.5398 29.2813 42.9311 29.9213C46.1054 30.3839 48.4627 30.5296 49.3414 30.3176C49.6515 30.2428 50.1356 30.0346 50.4172 29.855L50.9292 29.5283L51.6719 29.8511C53.2357 30.5305 54.8245 30.8886 57.6832 31.206C59.8975 31.4518 60.8697 31.5992 61.4099 31.7709C61.7363 31.8746 61.7631 31.9284 61.9396 32.8317C62.6293 36.3621 64.7705 39.1688 68.8302 41.8635C69.8141 42.5165 70.6992 43.4448 70.859 43.9915C71.132 44.9246 70.95 46.1236 70.3332 47.4568C69.9758 48.2291 69.4901 48.9745 68.3832 50.4492C67.5036 51.6213 67.2034 52.2413 67.2043 52.8849C67.2053 53.5111 67.3576 53.8705 67.7704 54.2199C68.6512 54.9654 70.0306 54.6715 71.2206 53.4849C72.6876 52.0222 74.6071 48.1965 75.4864 44.9826L75.7306 44.0901L76.4262 44.8045C76.8245 45.2137 77.2387 45.7759 77.3954 46.1202C77.6331 46.6424 77.6588 46.8126 77.5901 47.4139C77.4244 48.8669 76.8299 50.1571 75.4851 51.9822C73.8297 54.2288 73.4119 55.6517 74.0733 56.7907C74.5156 57.5523 75.7617 58.0072 76.732 57.7615C78.8743 57.2189 79.9945 55.5343 81.6844 50.3144C82.8421 46.7386 83.1508 44.9068 82.8168 43.5956C82.5954 42.7264 82.3724 42.3427 81.4191 41.1894C79.7753 39.2009 79.2269 38.2723 78.542 36.3175C78.1723 35.2626 78.1203 34.9952 78.3775 35.4722C78.4687 35.6411 79.0502 36.4945 79.6699 37.3687C80.2895 38.243 81.2678 39.6861 81.8439 40.5759C82.4199 41.4656 83.1198 42.5449 83.3992 42.9745C86.21 47.2947 88.6925 49.5772 91.836 50.731C97.0121 52.631 102.188 50.1997 103.724 45.1471C104.09 43.9437 104.092 42.2956 103.729 41.549C103.373 40.8176 102.85 40.4368 102.126 40.3823C101.437 40.3304 100.877 40.5933 100.575 41.1111C100.456 41.3137 100.333 41.8575 100.273 42.4416C100.072 44.3933 99.5411 45.2376 98.0592 45.9602C96.267 46.8342 93.5452 46.3095 91.2223 44.6423C89.8647 43.6679 88.1213 41.5123 86.9408 39.3487C86.7232 38.9498 86.035 37.4939 85.4113 36.1133C83.4216 31.7085 82.1221 29.2764 80.3029 26.5529C78.5803 23.9739 76.5486 21.4974 74.4324 19.3966C70.0755 15.0719 66.2208 12.9795 59.2915 11.1785C55.7495 10.2578 55.2061 9.98507 53.1289 8.08527C50.7744 5.93177 49.4633 5.30523 46.3062 4.82439C44.8171 4.59758 44.2123 4.37033 42.7697 3.49501C41.4015 2.66487 40.2396 2.14487 39.3641 1.97095C39.0382 1.90624 38.6629 1.83038 38.53 1.80249C38.3484 1.76433 38.2457 1.60457 38.1175 1.16089C37.8837 0.351833 37.5406 0.0503904 36.8038 0.00632305C36.3409 -0.0213446 36.0906 0.0364461 35.5907 0.286347ZM36.8883 1.65065C37.0188 2.24807 36.8417 2.90138 36.2726 3.92241C35.9695 4.46639 35.7215 4.94834 35.7215 4.99341C35.7215 5.12773 36.4565 4.91967 36.8536 4.67278C37.0566 4.5466 37.3428 4.31477 37.4896 4.15747C37.6365 4.00028 37.8613 3.87164 37.9891 3.87164C38.4649 3.87164 39.8377 4.32972 41.4903 5.03993C43.6007 5.94694 44.2538 6.15143 45.9607 6.44038C49.1195 6.97499 49.9678 7.36468 52.0264 9.22667C54.3301 11.3103 55.0535 11.7104 58.0075 12.5339C63.4717 14.0575 64.769 14.5011 66.7706 15.5309C68.902 16.6274 70.7946 17.9941 72.6252 19.7584C74.8429 21.8959 76.8686 24.3357 78.7474 27.1325C80.9514 30.4132 81.0634 30.6215 84.6583 38.1215C85.5856 40.056 86.4524 41.5164 87.2905 42.5567C87.5999 42.9404 87.8529 43.3193 87.8529 43.3985C87.8529 43.4778 87.5383 43.8883 87.1539 44.3108C86.6704 44.842 86.4097 45.0508 86.3085 44.9878C86.1191 44.8701 84.4182 42.254 83.0048 39.9065C82.3952 38.894 81.3542 37.2122 80.6915 36.1691C78.3817 32.5335 77.2829 29.9765 76.6873 26.8525C76.3804 25.2417 76.2341 25.5692 76.1322 28.0958C76.0061 31.2188 76.5204 34.2404 77.7248 37.4521C78.3892 39.2238 79.2075 40.5942 80.6144 42.2901C81.0657 42.8341 81.4863 43.4114 81.549 43.5731C81.7216 44.0175 81.6631 45.2824 81.4178 46.4127C81.114 47.8127 79.4062 52.9167 78.8754 54.0106C78.3552 55.083 77.5526 56.0372 76.9381 56.3139C76.4197 56.5474 76.3181 56.5133 76.3158 56.1044C76.3148 55.9393 76.264 55.7289 76.2029 55.6368C76.1086 55.495 76.0513 55.5152 75.8281 55.7688C75.6831 55.9334 75.541 56.1342 75.5125 56.2151C75.3956 56.5452 75.2637 56.1292 75.2642 55.432C75.2648 54.5574 75.3786 54.3299 76.7529 52.4573C77.7742 51.0657 78.5623 49.561 78.8256 48.5003C79.1049 47.3749 79.0014 46.1402 78.5507 45.2193C77.9049 43.8998 76.7788 42.861 72.5462 39.6796C68.5456 36.6726 66.9826 34.8019 65.9064 31.7331C65.4271 30.3661 65.1542 28.8808 64.9955 26.7738C64.9204 25.7789 64.8226 24.9876 64.7779 25.0154C64.6753 25.0792 64.4775 26.2177 64.386 27.272C64.3474 27.7169 64.2878 28.0808 64.2536 28.0808C64.2194 28.0808 63.588 27.8839 62.8507 27.6431C62.1132 27.4025 60.4447 26.9754 59.143 26.6943C55.301 25.8645 54.0606 25.3447 52.7474 24.0143C51.6156 22.8678 50.9523 21.4314 50.7446 19.6773C50.7024 19.3199 50.6276 19.0689 50.5785 19.1195C50.409 19.2943 50.1727 20.7766 50.1548 21.7775C50.1449 22.3297 50.2373 23.4593 50.3601 24.2877C50.483 25.116 50.5837 25.9746 50.5839 26.1956C50.5847 26.7525 50.1925 27.287 49.533 27.628L48.9807 27.9135H43.8207C38.7009 27.9135 38.6551 27.9155 37.9398 28.1728C36.9024 28.5461 36.348 28.901 35.3808 29.8107C34.0279 31.0833 33.1182 31.4112 32.7492 30.759C32.5076 30.3319 32.3355 30.3348 32.1852 30.7684C32.0493 31.1604 31.8921 31.1509 31.581 30.7316C30.9548 29.888 31.3725 28.434 32.5632 27.3138C33.3443 26.5788 34.9727 25.6889 36.7752 25.0117C38.4792 24.3714 41.5371 23.3032 42.7093 22.9386C44.1628 22.4866 44.1623 22.4869 43.6652 22.3744C42.8794 22.1965 41.8526 21.6307 41.6169 21.2457C41.3707 20.8436 40.939 19.3596 40.6585 17.9513C40.06 14.9458 38.8323 13.101 36.7671 12.1043C35.8703 11.6716 35.7047 11.6286 34.9468 11.6326C33.9021 11.6381 33.3535 11.9021 32.5663 12.7779C30.9937 14.5277 30.3462 15.1177 29.8529 15.2498C29.2644 15.4074 28.722 15.3232 28.4617 15.0339C28.2781 14.8298 28.2843 14.8135 28.6113 14.6434C29.6646 14.0956 30.225 13.2193 30.2215 12.1257C30.2185 11.1818 29.9 10.5856 29.1352 10.0919C28.6442 9.77511 28.4937 9.73528 27.7981 9.73818C26.9018 9.74197 26.4971 9.91066 25.7624 10.5865C25.2566 11.0518 25.0703 11.0676 24.5501 10.6887C24.2656 10.4815 23.9423 9.86681 23.9704 9.58646C24.0074 9.21718 23.9622 9.12626 23.6693 8.98178C23.5072 8.90168 23.3201 8.74326 23.2534 8.62969C23.1504 8.45387 23.2066 8.36261 23.6314 8.0161C23.9059 7.79219 24.4874 7.25758 24.9235 6.82806C25.6484 6.11406 25.7374 5.97583 25.9611 5.21464C26.2473 4.24159 26.5784 3.87733 27.7304 3.26842C29.1352 2.52597 31.5803 1.86351 32.9162 1.86351H33.4095L33.0107 2.33208C32.7915 2.58967 32.6303 2.8533 32.6526 2.91778C32.725 3.12663 33.6496 3.03358 34.1865 2.76349C34.4708 2.62035 34.9699 2.30006 35.2956 2.05149C36.4128 1.19927 36.7702 1.10935 36.8883 1.65065ZM27.4581 4.98114C27.1054 5.12639 26.8829 5.45428 26.8103 5.93556C26.7733 6.181 26.7105 6.54503 26.6708 6.74439C26.5692 7.25367 26.8064 7.21976 27.3524 6.647C27.8928 6.08014 28.4684 5.81362 29.3714 5.71243C29.7527 5.6697 30.0646 5.58715 30.0646 5.52902C30.0646 5.4709 29.8025 5.30054 29.4823 5.1506C28.8836 4.87024 27.9229 4.78981 27.4581 4.98114ZM40.2913 6.4599C40.0784 6.67399 40.1369 7.18127 40.4114 7.50224C40.7118 7.85344 41.5805 8.01665 41.785 7.76028C42.0961 7.37026 42.0689 7.10987 41.675 6.71371C41.3667 6.40368 41.2029 6.32603 40.857 6.32603C40.619 6.32603 40.3645 6.38627 40.2913 6.4599ZM45.0386 7.74611C44.6154 7.9081 44.594 8.45264 44.9981 8.77227C45.346 9.04761 45.7332 9.06981 45.9735 8.82827C46.4723 8.32646 45.7391 7.47792 45.0386 7.74611ZM37.9415 8.33093C37.6492 8.88037 37.9384 10.0344 38.3987 10.1555C38.8703 10.2795 38.9519 9.48114 38.554 8.6375C38.3287 8.1599 38.0948 8.04287 37.9415 8.33093ZM48.1031 9.43395C47.6626 9.9236 48.189 10.9263 48.9634 11.0724C49.8073 11.2317 50.1594 10.9079 49.9237 10.1896C49.7466 9.64949 49.3466 9.32138 48.7887 9.25813C48.4029 9.2144 48.2699 9.24853 48.1031 9.43395ZM42.1388 10.7504C41.8313 11.102 41.788 11.4479 41.9861 11.9697C42.2107 12.5613 42.6183 12.9088 43.0848 12.9066C43.5208 12.9043 43.6655 12.811 43.8052 12.4414C44.0582 11.772 43.4304 10.7224 42.708 10.607C42.4147 10.5602 42.2742 10.5957 42.1388 10.7504ZM51.6936 12.6851C51.3755 13.0051 51.4189 13.3236 51.8378 13.745C52.3322 14.2422 53.0531 14.4619 53.4531 14.2371C53.7838 14.0512 53.8973 13.5206 53.6897 13.1306C53.3587 12.5084 52.1398 12.2364 51.6936 12.6851ZM46.6532 13.3794C46.3386 13.831 46.4568 14.3435 47.0139 14.9443C47.2276 15.1748 47.4031 15.2511 47.7192 15.2511C48.0783 15.2511 48.1505 15.2091 48.2114 14.9655C48.2505 14.8083 48.2545 14.4695 48.2202 14.2124C48.1029 13.3321 47.0689 12.7824 46.6532 13.3794ZM57.8668 14.1164C57.7659 14.2286 57.6832 14.3998 57.6832 14.4969C57.6832 14.7202 58.3017 15.2511 58.5619 15.2511C58.8229 15.2511 59.1251 14.9021 59.1251 14.6008C59.1251 14.0223 58.2533 13.6867 57.8668 14.1164ZM62.837 15.5804C62.0121 15.9166 62.2318 16.9706 63.234 17.4849C63.8342 17.7928 64.3922 17.7729 64.7315 17.4316C65.07 17.0912 65.0746 16.8399 64.7509 16.357C64.3 15.6839 63.4394 15.3347 62.837 15.5804ZM42.7009 15.9853C42.4799 16.2218 42.432 16.3888 42.432 16.9218C42.432 17.6827 42.6685 18.0401 43.1718 18.0401C43.6498 18.0401 43.9547 17.4911 43.8989 16.7309C43.8271 15.754 43.2516 15.3956 42.7009 15.9853ZM53.5388 16.598C52.9376 17.0736 53.26 18.0339 54.1697 18.4768C55.2516 19.0036 56.2202 18.6063 56.0974 17.686C55.9925 16.899 55.298 16.3667 54.3762 16.3667C53.9926 16.3667 53.7444 16.4352 53.5388 16.598ZM59.3524 18.7401C59.1207 18.8229 58.885 19.0232 58.7551 19.2478C58.5692 19.5689 58.5577 19.6769 58.6694 20.0516C58.9392 20.9576 59.8435 21.6102 60.829 21.6102C61.2447 21.6102 61.4128 21.5506 61.6392 21.3229C61.8878 21.0729 61.9179 20.9652 61.8727 20.4909C61.7568 19.2783 60.4287 18.3556 59.3524 18.7401ZM45.6549 18.9575C45.24 19.5532 45.7064 20.9808 46.4285 21.3254C46.8869 21.5442 47.1689 21.4357 47.4222 20.943C47.6408 20.5177 47.6305 20.2051 47.3794 19.649C46.9851 18.7759 46.0442 18.3985 45.6549 18.9575ZM69.4275 19.2804C69.0532 19.6569 69.1864 20.3913 69.7331 20.9641C70.9883 22.2793 72.4279 21.7818 71.6696 20.2948C71.4029 19.7715 71.0469 19.4367 70.524 19.2169C69.9704 18.9842 69.7068 18.9995 69.4275 19.2804ZM65.3738 20.2238C65.1383 20.4606 65.0996 20.5806 65.1525 20.9085C65.3622 22.2079 67.0665 23.1144 67.6968 22.2617C68.0014 21.8496 67.8789 21.2783 67.3629 20.7038C66.6267 19.8842 65.8885 19.7061 65.3738 20.2238ZM37.3451 20.3741C37.734 20.6127 38.2228 21.5367 38.3357 22.2466C38.4011 22.6587 38.3836 22.6987 38.0817 22.8244C37.553 23.0447 36.3201 22.9954 34.7092 22.6897C31.7376 22.1258 31.2658 22.1519 27.6512 23.0811C25.8418 23.5462 25.2785 23.6465 24.4078 23.659C23.4879 23.6722 23.2837 23.6387 22.7995 23.3952C22.3331 23.1607 22.2285 23.0493 22.1417 22.6958C22.0095 22.1575 22.2623 21.7749 22.9946 21.4054C23.6198 21.0899 24.5538 20.9922 28.5118 20.8283C31.0922 20.7214 33.3332 20.5255 34.7787 20.2802C35.8423 20.0997 36.9646 20.1408 37.3451 20.3741ZM55.3524 21.4219C54.9438 21.6258 54.9143 22.2512 55.2963 22.6121C55.6167 22.9149 56.2192 22.9757 56.5083 22.7345C56.9248 22.3867 56.5351 21.4873 55.907 21.3468C55.7536 21.3125 55.504 21.3463 55.3524 21.4219ZM72.4641 23.6462C72.0926 24.1208 72.2463 25.0846 72.7793 25.6205C73.6031 26.4491 74.5148 25.6838 74.0467 24.5567C73.7775 23.9086 73.3492 23.5067 72.9272 23.5067C72.7327 23.5067 72.5243 23.5695 72.4641 23.6462ZM47.8363 24.1267C47.3393 24.4767 47.6713 25.4033 48.2935 25.4033C48.8843 25.4033 49.1624 24.4706 48.6741 24.1267C48.5386 24.0312 48.35 23.953 48.2552 23.953C48.1604 23.953 47.9718 24.0312 47.8363 24.1267ZM60.2591 24.2382C59.7229 24.6159 60.1476 25.5149 60.862 25.5149C61.4784 25.5149 61.77 24.8543 61.3926 24.3125C61.1856 24.015 60.6276 23.9785 60.2591 24.2382ZM43.3941 24.8805C42.9 25.4096 43.2386 26.1842 43.9639 26.1842C44.4609 26.1842 44.8167 25.8367 44.8167 25.3511C44.8167 24.8586 44.5686 24.6224 44.0517 24.6224C43.7599 24.6224 43.5631 24.6996 43.3941 24.8805ZM67.8395 25.4416C67.6211 25.6612 67.5555 25.8393 67.5574 26.2071C67.5643 27.5866 68.8987 28.7228 69.5433 27.8984C70.1492 27.1238 69.4686 25.4257 68.472 25.2252C68.1918 25.1688 68.0689 25.2108 67.8395 25.4416ZM39.1385 25.5985C38.8255 25.9651 38.816 26.1831 39.1006 26.4694C39.6061 26.9779 40.2691 26.7026 40.2691 25.9841C40.2691 25.4354 39.5013 25.1736 39.1385 25.5985ZM25.2427 26.8815C25.2178 26.9583 25.1816 27.1194 25.1624 27.2396C25.1397 27.3815 25.0081 27.4829 24.7877 27.5282C23.8623 27.7186 23.1877 28.587 23.1877 29.5877C23.1877 30.1787 23.4961 30.8582 23.9148 31.1894C24.203 31.4174 24.2985 31.4568 24.8792 31.5868C25.1417 31.6456 25.1843 31.7102 25.1843 32.0495V32.444L25.7111 32.41C26.2322 32.3763 26.238 32.3717 26.238 31.9877C26.238 31.6244 26.2652 31.595 26.6611 31.53C27.4523 31.4 28.1108 30.6783 28.2423 29.7972C28.389 28.813 27.7102 27.7865 26.7385 27.5234C26.3462 27.4171 26.2934 27.3637 26.2934 27.0724C26.2934 26.7549 26.2739 26.742 25.7909 26.742C25.4869 26.742 25.2702 26.7972 25.2427 26.8815ZM1.54841 27.2225C0.941804 27.542 0.401079 28.3179 0.220949 29.1273C0.0490258 29.9001 0.228158 30.7078 0.712204 31.3428C1.8358 32.8167 4.21322 32.474 4.93585 30.734C5.1385 30.246 5.16057 29.2309 4.98155 28.6299C4.56805 27.242 2.84959 26.5374 1.54841 27.2225ZM7.23795 27.0822C6.28284 27.4678 5.66125 28.4772 5.66513 29.6367C5.66957 30.9762 6.40662 31.9586 7.59289 32.2064C8.52981 32.402 9.25932 32.1579 9.90875 31.4313C10.6313 30.623 10.7996 29.8418 10.4829 28.7688C10.2765 28.0701 9.76045 27.4487 9.15761 27.1732C8.68055 26.9552 7.67109 26.9074 7.23795 27.0822ZM12.5951 27.1503C11.6187 27.667 11.1585 28.4652 11.1579 29.6427C11.1573 30.7961 11.5622 31.5411 12.4287 31.9813C13.6239 32.5884 15.0399 32.1815 15.7052 31.0398C16.4968 29.6811 15.9542 27.7954 14.5926 27.1732C14.0425 26.9219 13.0481 26.9105 12.5951 27.1503ZM18.4183 29.5901V32.2203L19.0006 32.1865L19.5829 32.1528L19.6132 30.1168L19.6433 28.0808L20.4451 28.0807L21.2467 28.0806L21.2121 30.1506L21.1773 32.2208L21.7667 32.1868L22.3558 32.1528V29.5869V27.021L20.3871 26.9905L18.4183 26.96V29.5901ZM3.34473 28.2236C4.11883 28.7461 4.20168 30.1304 3.5009 30.8353C2.85503 31.4849 1.83658 31.2989 1.49151 30.4684C1.12926 29.5964 1.42286 28.525 2.12275 28.1647C2.62587 27.9055 2.89263 27.9185 3.34473 28.2236ZM8.6679 28.142C9.42137 28.5339 9.69423 29.8063 9.19798 30.6138C8.64173 31.5193 7.34765 31.3706 6.92483 30.3527C6.59418 29.5569 6.8483 28.5696 7.48397 28.1796C7.8998 27.9245 8.22967 27.914 8.6679 28.142ZM14.1851 28.1271C14.739 28.4152 15.0319 29.2758 14.8562 30.0995C14.5186 31.6833 12.5005 31.5579 12.259 29.9381C12.0578 28.589 13.1318 27.5792 14.1851 28.1271ZM25.1843 29.5311C25.1843 30.4482 25.1657 30.5352 24.9705 30.5352C24.6782 30.5352 24.2969 30.0182 24.2969 29.622C24.2969 29.2512 24.5566 28.6865 24.766 28.6017C25.1513 28.4458 25.1843 28.5191 25.1843 29.5311ZM26.8873 28.8006C27.4092 29.287 27.1833 30.3918 26.5268 30.5645C26.2573 30.6354 26.1857 30.3752 26.243 29.5311C26.2659 29.1936 26.2866 28.8296 26.289 28.7223C26.2952 28.4473 26.5431 28.4797 26.8873 28.8006ZM73.0412 29.2723C72.737 29.5783 72.8698 30.61 73.2563 30.9445C73.6338 31.2712 73.9265 31.2751 74.1482 30.9566C74.4622 30.5057 74.3469 29.8911 73.8441 29.3359C73.5737 29.0373 73.2966 29.0154 73.0412 29.2723ZM79.6672 30.8922C79.4342 31.1265 79.5091 31.7474 79.8064 32.0463C79.9561 32.1969 80.1458 32.3202 80.2278 32.3202C80.6448 32.3202 80.7743 31.6716 80.474 31.0874C80.2941 30.7375 79.9127 30.6452 79.6672 30.8922ZM68.7259 31.341C68.3423 31.8917 68.663 33.072 69.3296 33.5634C70.1078 34.1372 70.7715 33.8448 70.7715 32.9282C70.7715 32.3099 70.5761 31.9069 70.0523 31.4442C69.5581 31.0078 68.9887 30.9634 68.7259 31.341ZM74.091 33.9477C73.7357 34.3782 74.0535 35.3031 74.6794 35.6605C74.9292 35.8031 74.9934 35.7996 75.251 35.6299C75.4586 35.4932 75.541 35.3423 75.541 35.0993C75.541 34.1792 74.5496 33.3918 74.091 33.9477ZM4.23529 34.3887C2.55056 34.7564 1.09665 35.8343 0.41927 37.218L0.0613378 37.9492L0.0307243 47.7485L0 57.5477L5.79846 57.5036C12.3174 57.454 12.4288 57.4423 14.0443 56.6372C15.6781 55.8233 16.8862 54.4516 17.4864 52.7291C17.8851 51.5853 17.9848 49.4602 17.6963 48.2557C17.1441 45.9501 15.959 44.429 13.9261 43.4169C12.3204 42.6176 11.9714 42.5545 8.85159 42.5002L6.10637 42.4524V41.5772C6.10637 41.0958 6.15595 40.5707 6.21662 40.4104C6.43846 39.8236 6.68835 39.7949 11.5933 39.7949H16.089V37.0058V34.2168L10.5154 34.2256C6.21429 34.2325 4.78045 34.2698 4.23529 34.3887ZM17.3349 37.1453L17.3645 40.0738L38.4944 40.0927C50.1158 40.103 59.9112 40.0843 60.2621 40.0509L60.8998 39.9904V37.1036V34.2168H39.1026H17.3054L17.3349 37.1453ZM82.1073 35.3547C81.8131 35.6507 82.1089 36.448 82.513 36.448C82.9835 36.448 83.1308 35.8263 82.7507 35.444C82.4974 35.1893 82.2991 35.1618 82.1073 35.3547ZM71.7755 36.3853C71.5402 36.6705 71.7264 37.3173 72.1116 37.5529C72.8413 37.9992 73.3408 37.4609 72.924 36.6778C72.7502 36.3514 72.6418 36.2747 72.3148 36.2471C72.0586 36.2256 71.8667 36.2747 71.7755 36.3853ZM84.8212 40.8734C84.5621 41.134 85.0309 42.2493 85.3996 42.2493C85.876 42.2493 85.9866 41.7402 85.6358 41.1616C85.4271 40.8173 85.0201 40.6734 84.8212 40.8734ZM41.3781 42.1843C38.8225 42.7239 36.6799 44.5669 35.7646 47.013C35.2244 48.4564 35.1682 49.3436 35.1675 56.4457L35.1669 63H37.9398H40.7128V59.6495V56.299L41.2986 56.7439C43.1493 58.1494 45.4052 58.2439 47.3217 56.9962C49.5843 55.5234 50.8665 52.9389 50.8467 49.8914C50.8363 48.2954 50.5993 47.2365 49.9621 45.9383C49.0599 44.1005 47.5277 42.8412 45.5377 42.3023C44.6244 42.055 42.3026 41.9891 41.3781 42.1843ZM23.8532 42.3563C22.8627 42.5695 21.9709 42.8899 21.2744 43.2829L20.8585 43.5175V45.6167C20.8585 46.7713 20.8772 47.7159 20.9 47.7159C20.9229 47.7159 21.3347 47.5353 21.8151 47.3146C23.1055 46.7216 24.1363 46.4882 25.4516 46.4911C27.2976 46.4952 27.7405 46.8273 27.9173 48.34C27.9876 48.9413 27.9792 48.9748 27.7805 48.8883C26.6514 48.3967 24.4899 48.2416 23.0495 48.5486C21.6005 48.8575 20.2674 49.702 19.5319 50.7773C18.5629 52.1939 18.4703 54.4192 19.3218 55.8255C19.6889 56.4317 20.6783 57.2523 21.3717 57.5257C22.189 57.8479 23.9111 57.9644 24.8342 57.7599C25.788 57.5486 26.9959 56.9426 27.604 56.3704L28.15 55.8567L28.2244 56.4206C28.2653 56.7306 28.3454 57.1079 28.4025 57.2589L28.5063 57.5334H30.8938H33.2813V52.7873C33.2813 47.439 33.2285 46.9201 32.5377 45.4846C31.7941 43.9396 30.3173 42.8288 28.3883 42.3636C27.1788 42.0719 25.1896 42.0688 23.8532 42.3563ZM58.1823 42.3221C54.8686 43.0317 52.5446 45.469 51.9613 48.8462C51.3723 52.2568 52.8597 55.4653 55.7066 56.9252C56.9187 57.5468 57.8712 57.7675 59.6243 57.8329C61.2489 57.8933 62.707 57.6935 63.7005 57.2741L64.1165 57.0985V54.5734C64.1165 53.1846 64.0791 52.0649 64.0333 52.0855C63.9875 52.1059 63.5533 52.3234 63.0685 52.5689C62.1919 53.0126 62.1796 53.0151 60.9056 53.0151C59.7312 53.0151 59.578 52.9904 59.0697 52.7184C57.8629 52.0726 57.3937 51.2598 57.4852 49.9736C57.6276 47.9717 58.9544 46.8068 61.1217 46.781C62.1769 46.7684 63.0621 46.9895 63.7002 47.425C63.9191 47.5745 64.1149 47.6803 64.1352 47.6601C64.1554 47.6399 64.1576 46.5232 64.1402 45.1785L64.1084 42.7337L63.5301 42.5544C62.0855 42.1063 59.6785 42.0019 58.1823 42.3221ZM89.9691 45.5822C90.5049 45.9901 91.7562 46.7747 92.0028 46.8574C92.1591 46.9097 91.3496 47.9946 90.8926 48.3451L90.518 48.6325L90.0451 48.3858C89.4826 48.0924 88.289 47.2504 88.0852 47.0033C87.9625 46.8547 87.9901 46.7868 88.2685 46.5512C88.4486 46.3987 88.7657 46.0222 88.9732 45.7148C89.1806 45.4073 89.3617 45.1544 89.3758 45.1528C89.3898 45.1513 89.6568 45.3445 89.9691 45.5822ZM43.9052 46.9966C45.0797 47.4901 45.6885 48.8635 45.4643 50.5134C45.3338 51.4731 44.8881 52.2605 44.2219 52.7083C43.7377 53.0337 43.6015 53.0707 42.8909 53.0684C42.3362 53.0668 41.9505 52.9982 41.6021 52.8392C40.6972 52.4264 40.7128 52.466 40.7128 50.5633C40.7128 49.3321 40.7594 48.7339 40.8837 48.3669C41.0652 47.8312 41.5513 47.2838 42.0992 46.9982C42.5262 46.7756 43.3776 46.775 43.9052 46.9966ZM10.2221 47.8804C11.224 48.2337 11.7325 49.0687 11.6258 50.1856C11.5466 51.0145 11.1001 51.6597 10.3491 52.0307C9.74193 52.3306 9.62424 52.3475 7.90878 52.3832L6.10637 52.4207V49.996V47.5713L7.90878 47.6358C9.13775 47.6797 9.87381 47.7576 10.2221 47.8804ZM96.5045 47.882L97.891 47.8832L98.0849 48.2737C98.3202 48.7475 98.3376 49.4248 98.119 49.6072C97.574 50.0623 95.2522 50.287 93.8549 50.0199C93.3432 49.922 92.9039 49.8212 92.8785 49.7957C92.8532 49.7702 93.0091 49.5554 93.2251 49.3184C93.4409 49.0813 93.7307 48.6213 93.8688 48.2962L94.1198 47.7052L94.6189 47.793C94.8934 47.8413 95.7419 47.8813 96.5045 47.882ZM27.7868 51.6172C27.9515 51.7547 27.975 51.9114 27.9318 52.5867C27.8676 53.5947 27.676 53.9009 26.8809 54.2671C26.3723 54.5012 26.1565 54.5397 25.6232 54.4911C24.4864 54.3873 23.9833 53.8748 24.1071 52.9463C24.194 52.2951 24.7228 51.7907 25.6273 51.4963C26.0816 51.3484 27.5642 51.4315 27.7868 51.6172Z" fill="black"/>
</svg>
