<svg width="32" height="32" viewBox="0 0 32 32" fill="none" xmlns="http://www.w3.org/2000/svg">
<g clip-path="url(#clip0_278_167)">
<path fill-rule="evenodd" clip-rule="evenodd" d="M0 16C0 7.16347 7.16347 0 16 0C24.8365 0 32 7.16347 32 16C32 24.8365 24.8365 32 16 32C7.16347 32 0 24.8365 0 16ZM16.837 21.2507C16.837 21.2507 17.145 21.2171 17.3027 21.0508C17.4471 20.8984 17.4421 20.6108 17.4421 20.6108C17.4421 20.6108 17.4229 19.2679 18.0582 19.0695C18.6843 18.8745 19.4881 20.3683 20.3412 20.9427C20.9856 21.3769 21.4747 21.2819 21.4747 21.2819L23.7544 21.2507C23.7544 21.2507 24.9464 21.1786 24.3813 20.2585C24.3345 20.1831 24.0515 19.5776 22.6868 18.3337C21.2569 17.0318 21.4489 17.2423 23.1701 14.9899C24.2185 13.6183 24.6375 12.7809 24.5065 12.4229C24.3821 12.0803 23.6108 12.1713 23.6108 12.1713L21.0449 12.1869C21.0449 12.1869 20.8545 12.1615 20.7135 12.2442C20.5757 12.3253 20.4864 12.5146 20.4864 12.5146C20.4864 12.5146 20.0807 13.5757 19.539 14.4786C18.3963 16.3829 17.9397 16.4836 17.7527 16.3657C17.3178 16.0895 17.4263 15.2579 17.4263 14.6671C17.4263 12.8211 17.7118 12.0517 16.8712 11.8525C16.5924 11.7862 16.3871 11.7427 15.6733 11.7354C14.7577 11.7264 13.983 11.7387 13.5439 11.9493C13.2518 12.0893 13.0264 12.4023 13.1641 12.4204C13.3336 12.4425 13.7176 12.522 13.9213 12.794C14.1842 13.1455 14.175 13.9337 14.175 13.9337C14.175 13.9337 14.3261 16.1067 13.8219 16.3763C13.4763 16.5615 13.0022 16.1837 11.983 14.4557C11.4613 13.5708 11.0673 12.5925 11.0673 12.5925C11.0673 12.5925 10.9913 12.4097 10.8553 12.3114C10.6909 12.1926 10.4613 12.1557 10.4613 12.1557L8.02307 12.1713C8.02307 12.1713 7.6566 12.1811 7.5222 12.3376C7.40287 12.4761 7.513 12.7637 7.513 12.7637C7.513 12.7637 9.42207 17.1481 11.584 19.358C13.5665 21.3835 15.8169 21.2507 15.8169 21.2507H16.837Z" fill="white"/>
</g>
<defs>
<clipPath id="clip0_278_167">
<rect width="32" height="32" fill="white"/>
</clipPath>
</defs>
</svg>
